<svg width="638" height="277" viewBox="0 0 638 277" fill="none" xmlns="http://www.w3.org/2000/svg">
<path d="M1.21625 -73.2895L1.21623 349.711M80.6892 -73.2895L80.6892 349.711M160.162 -73.2895L160.162 349.711M239.635 -73.2895L239.635 349.711M319.108 -73.2895L319.108 349.711M398.581 -73.2895L398.581 349.711M478.054 -73.2895L478.054 349.711M557.527 -73.2895L557.527 349.711M637 -73.2895L637 349.711M1 337.883H636.784M1 271.335L636.784 271.335M1 204.786L636.784 204.786M1 138.237L636.784 138.237M1 71.6887L636.784 71.6887M1 5.14005L636.784 5.14007M1 -61.4086L636.784 -61.4086" stroke="url(#paint0_radial_1_678)" stroke-opacity="0.3" stroke-width="1.57002"/>
<defs>
<radialGradient id="paint0_radial_1_678" cx="0" cy="0" r="1" gradientUnits="userSpaceOnUse" gradientTransform="translate(319 138.211) rotate(90) scale(211.5 318)">
<stop stop-color="white"/>
<stop offset="1" stop-color="white" stop-opacity="0"/>
</radialGradient>
</defs>
</svg>
