<svg width="40" height="39" viewBox="0 0 40 39" fill="none" xmlns="http://www.w3.org/2000/svg">
<path fill-rule="evenodd" clip-rule="evenodd" d="M19.7281 0.00787354C8.83258 0.00787354 0 8.62594 0 19.2569C0 29.8878 8.83258 38.5058 19.7281 38.5058C30.6237 38.5058 39.4562 29.8878 39.4562 19.2569C39.4562 8.62594 30.6237 0.00787354 19.7281 0.00787354ZM15.3898 9.05281C16.5121 9.00297 16.8707 8.99078 19.7282 8.99078H19.725C22.5834 8.99078 22.9407 9.00297 24.063 9.05281C25.1831 9.10286 25.9482 9.27589 26.6189 9.52976C27.3116 9.79176 27.8969 10.1425 28.4822 10.7136C29.0674 11.2842 29.4269 11.857 29.6965 12.5322C29.9552 13.185 30.1328 13.931 30.1854 15.0239C30.2358 16.119 30.2489 16.4689 30.2489 19.257C30.2489 22.0452 30.2358 22.3942 30.1854 23.4893C30.1328 24.5818 29.9552 25.328 29.6965 25.981C29.4269 26.656 29.0674 27.2288 28.4822 27.7994C27.8975 28.3704 27.3114 28.7221 26.6196 28.9843C25.9501 29.2382 25.1847 29.4112 24.0645 29.4612C22.9422 29.5111 22.5847 29.5233 19.7269 29.5233C16.8696 29.5233 16.5112 29.5111 15.3889 29.4612C14.269 29.4112 13.5042 29.2382 12.8347 28.9843C12.1431 28.7221 11.5561 28.3704 10.9715 27.7994C10.3864 27.2288 10.0269 26.656 9.75796 25.9808C9.49798 25.328 9.32065 24.582 9.26914 23.4891C9.21828 22.394 9.20557 22.0452 9.20557 19.257C9.20557 16.4689 9.21872 16.1188 9.26892 15.0237C9.31933 13.9312 9.49689 13.185 9.75774 12.532C10.0274 11.857 10.3869 11.2842 10.9721 10.7136C11.557 10.1427 12.144 9.79198 12.836 9.52976C13.505 9.27589 14.2696 9.10286 15.3898 9.05281Z" fill="white"/>
<path fill-rule="evenodd" clip-rule="evenodd" d="M18.7853 10.84C18.9686 10.8398 19.1657 10.8398 19.3785 10.8399L19.7292 10.84C22.5385 10.84 22.8715 10.8499 23.9809 10.8991C25.0067 10.9448 25.5635 11.1121 25.9344 11.2526C26.4254 11.4387 26.7755 11.6611 27.1435 12.0204C27.5118 12.3798 27.7398 12.722 27.9309 13.2011C28.0749 13.5625 28.2466 14.1058 28.2933 15.1067C28.3437 16.189 28.3546 16.5141 28.3546 19.2539C28.3546 21.9937 28.3437 22.3188 28.2933 23.401C28.2463 24.402 28.0749 24.9452 27.9309 25.3067C27.7402 25.7858 27.5118 26.1269 27.1435 26.486C26.7753 26.8453 26.4256 27.0678 25.9344 27.2538C25.5639 27.395 25.0067 27.5618 23.9809 27.6076C22.8717 27.6568 22.5385 27.6675 19.7292 27.6675C16.9196 27.6675 16.5867 27.6568 15.4775 27.6076C14.4516 27.5614 13.8949 27.3941 13.5237 27.2536C13.0327 27.0675 12.682 26.8451 12.3137 26.4858C11.9455 26.1265 11.7175 25.7851 11.5264 25.3058C11.3823 24.9444 11.2107 24.4011 11.164 23.4001C11.1136 22.3179 11.1035 21.9928 11.1035 19.2513C11.1035 16.5098 11.1136 16.1864 11.164 15.1042C11.2109 14.1032 11.3823 13.5599 11.5264 13.1981C11.7171 12.719 11.9455 12.3768 12.3137 12.0174C12.682 11.6581 13.0327 11.4357 13.5237 11.2492C13.8946 11.108 14.4516 10.9412 15.4775 10.8952C16.4481 10.8524 16.8243 10.8396 18.7853 10.8375V10.84ZM25.3461 12.5459C24.649 12.5459 24.0835 13.0971 24.0835 13.7774C24.0835 14.4576 24.649 15.0094 25.3461 15.0094C26.0432 15.0094 26.6088 14.4576 26.6088 13.7774C26.6088 13.0973 26.0432 12.5455 25.3461 12.5455V12.5459ZM14.3271 19.2571C14.3271 16.3456 16.7464 13.985 19.7303 13.9849C22.7143 13.9849 25.133 16.3455 25.133 19.2571C25.133 22.1686 22.7146 24.5281 19.7305 24.5281C16.7465 24.5281 14.3271 22.1686 14.3271 19.2571Z" fill="white"/>
<path fill-rule="evenodd" clip-rule="evenodd" d="M19.7299 15.8345C21.6667 15.8345 23.2371 17.3665 23.2371 19.2566C23.2371 21.1464 21.6667 22.6787 19.7299 22.6787C17.7927 22.6787 16.2226 21.1464 16.2226 19.2566C16.2226 17.3665 17.7927 15.8345 19.7299 15.8345V15.8345Z" fill="white"/>
</svg>
