<svg width="40" height="39" viewBox="0 0 40 39" fill="none" xmlns="http://www.w3.org/2000/svg">
<path fill-rule="evenodd" clip-rule="evenodd" d="M19.7491 0.00787354C8.85359 0.00787354 0.0210114 8.62594 0.0210114 19.2569C0.0210114 29.8878 8.85359 38.5058 19.7491 38.5058C30.6447 38.5058 39.4773 29.8878 39.4773 19.2569C39.4773 8.62594 30.6447 0.00787354 19.7491 0.00787354ZM9.49123 15.9507H13.962V29.0575H9.49123V15.9507ZM14.2591 11.8958C14.2301 10.6107 13.2883 9.6319 11.7588 9.6319C10.2294 9.6319 9.22951 10.6107 9.22951 11.8958C9.22951 13.1543 10.1998 14.1613 11.7008 14.1613H11.7294C13.2883 14.1613 14.2591 13.1543 14.2591 11.8958ZM24.9397 15.6422C27.8817 15.6422 30.0873 17.5158 30.0873 21.5416L30.0871 29.0566H25.6165V22.0445C25.6165 20.2832 24.9695 19.0814 23.3511 19.0814C22.1159 19.0814 21.3802 19.8916 21.0571 20.6742C20.9389 20.9546 20.9099 21.3454 20.9099 21.7371V29.057H16.4385C16.4385 29.057 16.4974 17.1801 16.4385 15.9503H20.9099V17.8067C21.5032 16.9143 22.566 15.6422 24.9397 15.6422Z" fill="white"/>
</svg>
