<svg width="192" height="19" viewBox="0 0 192 19" fill="none" xmlns="http://www.w3.org/2000/svg">
<path d="M71.28 2.30553C71.28 2.84553 71.1257 3.30839 70.74 3.61696C70.3543 4.00267 69.8915 4.15696 69.3515 4.15696C68.9657 4.15696 68.6572 4.07981 68.4257 3.92553C68.1172 3.77124 67.8857 3.53981 67.7314 3.23124C67.5772 2.92267 67.5 2.6141 67.5 2.30553C67.5 1.76553 67.6543 1.30267 68.04 0.994101C68.4257 0.608387 68.8886 0.454102 69.3515 0.454102C69.8915 0.454102 70.3543 0.608387 70.6629 0.994101C71.0486 1.30267 71.28 1.76553 71.28 2.30553Z" fill="#F5F5F5"/>
<path d="M84.7795 14.3401C84.7795 15.4973 84.3167 16.5001 83.4681 17.1944C82.6195 17.9658 81.3081 18.2744 79.611 18.2744C78.6853 18.2744 77.8367 18.1973 77.0653 18.043C76.2938 17.8887 75.5224 17.6573 74.6738 17.2716V14.0316C75.4453 14.4944 76.0624 14.803 76.6795 15.0344C77.2195 15.2658 77.8367 15.343 78.531 15.343C79.6881 15.343 80.2281 15.0344 80.2281 14.4173C80.2281 14.1858 80.151 14.0316 79.9967 13.8773C79.8424 13.723 79.5338 13.4916 79.1481 13.3373C78.7624 13.1058 78.2224 12.8744 77.5281 12.5658C76.6795 12.1801 75.9853 11.7173 75.3681 11.1001C74.751 10.483 74.5195 9.71157 74.5195 8.78585C74.5195 8.16871 74.751 7.55157 75.1367 6.93442C75.5224 6.31728 76.1395 5.85442 76.911 5.46871C77.6824 5.083 78.6853 4.92871 79.7653 4.92871C79.9967 4.92871 80.3824 4.92871 80.7681 5.00585C81.1538 5.083 81.6938 5.16014 82.311 5.31442C82.9281 5.46871 83.5452 5.70014 84.0852 6.00871V9.17157C83.8538 9.01728 83.6224 8.86299 83.391 8.78585C83.2367 8.70871 83.0052 8.55442 82.6967 8.40014C82.3881 8.24585 82.0024 8.16871 81.6167 8.01442C81.231 7.93728 80.7681 7.86014 80.3824 7.86014C79.8424 7.86014 79.5338 7.93728 79.3024 8.16871C79.071 8.40014 78.9938 8.55442 78.9938 8.78585C78.9938 9.01728 79.071 9.17157 79.3024 9.40299C79.5338 9.63442 79.9195 9.78871 80.6138 10.0973C81.6167 10.483 82.3881 10.8687 83.0052 11.2544C83.6224 11.6401 84.0081 12.103 84.3167 12.5658C84.6252 13.1058 84.7795 13.6458 84.7795 14.3401Z" fill="#F5F5F5"/>
<path d="M97.3547 17.2713C96.8918 17.5027 96.2747 17.7342 95.4261 17.8884C94.5775 18.1199 93.8061 18.197 93.0347 18.197C89.7947 18.197 88.1747 16.577 88.1747 13.4142V8.32274H86.0918V7.55131L92.1861 1.37988H92.7261V5.23702H97.0461V8.39988H92.7261V12.4884C92.7261 12.9513 92.7261 13.337 92.8032 13.6456C92.8804 13.9542 93.0347 14.1856 93.2661 14.417C93.5747 14.6484 93.9604 14.7256 94.5004 14.7256C95.1947 14.7256 96.1975 14.417 97.3547 13.7999V17.2713Z" fill="#F5F5F5"/>
<path d="M115.329 2.30553C115.329 2.84553 115.175 3.30839 114.789 3.61696C114.403 4.00267 113.94 4.15696 113.4 4.15696C113.015 4.15696 112.706 4.07981 112.475 3.92553C112.166 3.77124 111.935 3.53981 111.78 3.23124C111.626 2.92267 111.549 2.6141 111.549 2.30553C111.549 1.76553 111.703 1.30267 112.089 0.994101C112.475 0.608387 112.937 0.454102 113.4 0.454102C113.94 0.454102 114.403 0.608387 114.712 0.994101C115.097 1.30267 115.329 1.76553 115.329 2.30553Z" fill="#F5F5F5"/>
<path d="M161.693 17.2713C161.23 17.5027 160.613 17.7342 159.764 17.8884C158.915 18.1199 158.144 18.197 157.373 18.197C154.133 18.197 152.513 16.577 152.513 13.4142V8.32274H150.43V7.55131L156.524 1.37988H157.064V5.23702H161.384V8.39988H157.064V12.4884C157.064 12.9513 157.064 13.337 157.141 13.6456C157.218 13.9542 157.373 14.1856 157.604 14.417C157.835 14.6484 158.298 14.7256 158.838 14.7256C159.533 14.7256 160.535 14.417 161.693 13.7999V17.2713Z" fill="#F5F5F5"/>
<path d="M177.815 11.6392C177.815 12.9506 177.507 14.0306 176.967 15.0335C176.427 16.0363 175.578 16.8077 174.498 17.4249C173.418 18.042 172.03 18.2734 170.487 18.2734C168.944 18.2734 167.555 17.9649 166.475 17.4249C165.395 16.8849 164.547 16.0363 164.007 15.0335C163.467 14.0306 163.158 12.8735 163.158 11.6392C163.158 10.6363 163.313 9.78774 163.621 9.01631C163.93 8.24489 164.392 7.5506 165.01 6.93346C165.627 6.31632 166.398 5.85346 167.324 5.54489C168.25 5.23632 169.33 5.08203 170.487 5.08203C171.721 5.08203 172.724 5.23632 173.727 5.54489C174.73 5.85346 175.424 6.31632 176.041 6.93346C176.658 7.5506 177.121 8.24489 177.43 9.01631C177.738 9.78774 177.815 10.6363 177.815 11.6392ZM173.11 11.6392C173.11 10.6363 172.878 9.86488 172.415 9.24774C171.952 8.6306 171.335 8.39917 170.487 8.39917C169.638 8.39917 169.021 8.70774 168.558 9.24774C168.095 9.78774 167.864 10.6363 167.864 11.6392C167.864 12.642 168.095 13.4135 168.558 14.0306C169.021 14.6477 169.638 14.8792 170.487 14.8792C171.335 14.8792 171.952 14.5706 172.415 14.0306C172.878 13.4135 173.11 12.642 173.11 11.6392Z" fill="#F5F5F5"/>
<path d="M70.3543 18.042C70.5086 18.042 70.8943 18.042 71.28 17.6563C71.28 17.6563 71.6657 17.2706 71.6657 16.7306V5.23633H68.4257C68.3486 5.23633 67.8857 5.23633 67.5771 5.62204C67.5771 5.62204 67.1914 6.00776 67.1914 6.54776V18.042H70.3543Z" fill="#F5F5F5"/>
<path d="M147.42 18.042C147.497 18.042 147.96 18.042 148.269 17.6563C148.269 17.6563 148.654 17.2706 148.654 16.7306V5.23633H145.414C145.337 5.23633 144.874 5.23633 144.566 5.62204C144.566 5.62204 144.18 6.00776 144.18 6.54776V12.7963C143.794 13.4135 143.409 13.8763 143.023 14.262C142.637 14.6478 142.097 14.802 141.48 14.802C140.709 14.802 140.169 14.5706 139.937 14.0306C139.706 13.4906 139.551 12.8735 139.551 12.1792V5.23633H135V12.7963C135 14.1849 135.309 15.4963 135.849 16.5763C136.389 17.6563 137.7 18.2735 139.629 18.2735C140.631 18.2735 141.48 18.1192 142.174 17.7335C142.869 17.4249 143.563 16.8849 144.18 16.1906V18.042H147.42Z" fill="#F5F5F5"/>
<path d="M64.0293 16.7314V0.608521H60.7893C60.7121 0.608521 60.2493 0.60852 59.9407 0.994235C59.9407 0.994235 59.555 1.37995 59.555 1.91995V6.00852C59.1693 5.69995 58.7064 5.46852 58.1664 5.31423C57.6264 5.15995 56.9321 5.00566 56.1607 5.00566C54.7721 5.00566 53.6921 5.31423 52.7664 5.93137C51.8407 6.54852 51.1464 7.39709 50.6836 8.39994C50.2207 9.4028 50.0664 10.4828 50.0664 11.6399C50.0664 13.1057 50.375 14.3399 50.915 15.3428C51.455 16.3457 52.2264 17.0399 53.1521 17.5028C54.0779 17.9657 54.9264 18.1971 55.9293 18.1971C56.855 18.1971 57.6264 18.0428 58.1664 17.8114C58.7064 17.5799 59.1693 17.1942 59.7093 16.8085V18.0428H62.9493C63.0264 18.0428 63.4893 18.0428 63.7979 17.6571C63.6436 17.6571 64.0293 17.3485 64.0293 16.7314ZM59.4779 13.9542C59.1693 14.1857 58.8607 14.4171 58.475 14.5714C58.1664 14.7257 57.7036 14.8028 57.1636 14.8028C56.4693 14.8028 55.9293 14.5714 55.3893 14.0314C54.8493 13.4914 54.6179 12.7199 54.6179 11.5628C54.6179 10.5599 54.8493 9.71137 55.3121 9.09423C55.775 8.47709 56.3921 8.16852 57.0864 8.16852C57.4721 8.16852 57.8579 8.24566 58.1664 8.3228C58.475 8.47709 58.8607 8.63137 59.4007 8.93994V13.9542H59.4779Z" fill="#F5F5F5"/>
<path d="M190.081 5.23729C189.696 5.083 189.233 5.00586 188.77 5.00586C187.767 5.00586 186.918 5.39157 186.224 6.08586C185.53 6.78014 184.99 7.55157 184.681 8.323V5.23729H181.441C181.287 5.23729 180.901 5.31443 180.593 5.623C180.593 5.623 180.207 6.00872 180.207 6.54872V18.043H183.447C183.524 18.043 183.987 18.043 184.296 17.6573C184.296 17.6573 184.681 17.2716 184.681 16.7316V12.4887C185.144 11.3316 185.53 10.5601 185.993 10.0973C186.456 9.63443 186.996 9.48014 187.613 9.48014C188.307 9.48014 189.001 9.78871 189.696 10.483L191.393 5.93157C190.93 5.623 190.467 5.39157 190.081 5.23729Z" fill="#F5F5F5"/>
<path d="M112.397 5.23633C112.243 5.23633 111.857 5.23633 111.472 5.62204C111.472 5.62204 111.086 6.00776 111.086 6.54776V18.042H114.326C114.403 18.042 114.866 18.042 115.175 17.6563C115.175 17.6563 115.56 17.2706 115.56 16.7306V5.23633H112.397Z" fill="#F5F5F5"/>
<path d="M109.236 5.23729C108.85 5.083 108.387 5.00586 107.924 5.00586C106.921 5.00586 106.073 5.39157 105.378 6.08586C104.684 6.78014 104.144 7.55157 103.836 8.323V5.23729H100.596C100.518 5.23729 100.056 5.23729 99.7471 5.623C99.7471 5.623 99.3613 6.00872 99.3613 6.54872V18.043H102.601C102.678 18.043 103.141 18.043 103.45 17.6573C103.45 17.6573 103.836 17.2716 103.836 16.7316V12.4887C104.298 11.3316 104.684 10.5601 105.147 10.0973C105.61 9.63443 106.15 9.48014 106.767 9.48014C107.461 9.48014 108.156 9.78871 108.85 10.483L110.547 5.93157C110.007 5.623 109.621 5.39157 109.236 5.23729Z" fill="#F5F5F5"/>
<path d="M132.532 9.24839C132.301 8.47697 131.915 7.70554 131.452 7.0884C130.989 6.47125 130.295 5.93125 129.524 5.54554C128.752 5.15982 127.827 5.00554 126.824 5.00554C126.052 5.00554 125.358 5.08268 124.818 5.31411C124.201 5.54554 123.738 5.77697 123.429 6.0084V0.608398H120.189C120.112 0.608398 119.649 0.608398 119.341 0.994112C119.341 0.994112 118.955 1.37983 118.955 1.91983V18.0427H122.195C122.272 18.0427 122.735 18.0427 123.044 17.657C123.044 17.657 123.429 17.2712 123.429 16.7312V16.8855C123.738 17.117 123.969 17.3484 124.278 17.5027C124.587 17.657 124.895 17.8884 125.435 18.0427C125.898 18.197 126.515 18.2741 127.209 18.2741C128.135 18.2741 129.061 18.0427 129.987 17.5798C130.912 17.117 131.607 16.4227 132.224 15.4198C132.841 14.417 133.072 13.1827 133.072 11.717C132.841 10.8684 132.764 10.0198 132.532 9.24839ZM127.287 14.1855C126.747 14.6484 126.207 14.8798 125.589 14.8798C124.664 14.8798 123.969 14.5712 123.275 13.9541V9.09411C124.124 8.55411 124.895 8.24554 125.589 8.24554C126.284 8.24554 126.824 8.55411 127.364 9.09411C127.827 9.63411 128.135 10.4827 128.135 11.6398C128.058 12.8741 127.827 13.7227 127.287 14.1855Z" fill="#F5F5F5"/>
<path d="M1.52588e-05 8.16864L4.32001 3.92578V6.31721H7.94573V8.40006H4.32001V14.0315C4.32001 15.3429 4.86001 16.0372 5.94001 16.0372C6.78858 16.0372 7.63715 15.7286 8.56287 15.1886V17.3486C7.7143 17.8115 6.71144 18.1201 5.70858 18.1201C4.62858 18.0429 3.78001 17.7343 3.08573 17.1943C2.8543 17.0401 2.70001 16.8086 2.54573 16.5772C2.39144 16.3458 2.3143 16.0372 2.16001 15.6515C2.00573 15.2658 2.00573 14.5715 2.00573 13.4915V8.32292H1.52588e-05V8.16864Z" fill="white"/>
<path d="M15.7378 6.24023C17.5121 6.24023 18.9778 6.78023 20.135 7.93738C21.2921 9.09452 21.9093 10.4831 21.9093 12.2574C21.9093 13.9545 21.2921 15.3431 20.135 16.4231C18.9778 17.5031 17.435 18.0431 15.6607 18.0431C13.8864 18.0431 12.4978 17.5031 11.3407 16.3459C10.1836 15.1888 9.56642 13.8002 9.56642 12.1802C9.56642 10.4831 10.1836 9.09452 11.3407 7.93738C12.4978 6.78023 13.9636 6.24023 15.7378 6.24023ZM15.5836 8.32309C14.5036 8.32309 13.5778 8.7088 12.8836 9.40309C12.1893 10.0974 11.8036 11.0231 11.8036 12.1802C11.8036 13.2602 12.1893 14.1859 12.8836 14.8802C13.5778 15.5745 14.5036 15.9602 15.6607 15.9602C16.8178 15.9602 17.7436 15.5745 18.4378 14.8802C19.1321 14.1859 19.5178 13.2602 19.5178 12.1802C19.5178 11.1002 19.1321 10.1745 18.3607 9.48023C17.6664 8.7088 16.7407 8.32309 15.5836 8.32309Z" fill="white"/>
<path d="M24.4531 0.299805H26.7674V17.8884H24.4531V0.299805ZM31.936 6.31694H34.636L29.6989 11.9484L35.6388 17.8884H32.5531L26.7674 11.9484L31.936 6.31694Z" fill="white"/>
<path d="M41.5035 6.24023C43.2778 6.24023 44.7435 6.78023 45.9006 7.93738C47.0577 9.09452 47.6749 10.4831 47.6749 12.2574C47.6749 13.9545 47.0577 15.3431 45.9006 16.4231C44.7435 17.5031 43.2006 18.0431 41.4263 18.0431C39.652 18.0431 38.2635 17.5031 37.1063 16.3459C35.9492 15.1888 35.332 13.8002 35.332 12.1802C35.332 10.4831 35.9492 9.09452 37.1063 7.93738C38.2635 6.78023 39.7292 6.24023 41.5035 6.24023ZM41.4263 8.32309C40.3463 8.32309 39.4206 8.7088 38.7263 9.40309C38.032 10.0974 37.6463 11.0231 37.6463 12.1802C37.6463 13.2602 38.032 14.1859 38.7263 14.8802C39.4206 15.5745 40.3463 15.9602 41.5035 15.9602C42.6606 15.9602 43.5863 15.5745 44.2806 14.8802C44.9749 14.1859 45.3606 13.2602 45.3606 12.1802C45.3606 11.1002 44.9749 10.1745 44.2035 9.48023C43.5092 8.7088 42.5063 8.32309 41.4263 8.32309Z" fill="white"/>
</svg>
