<svg width="199" height="30" viewBox="0 0 199 30" fill="none" xmlns="http://www.w3.org/2000/svg">
<g clip-path="url(#clip0_1_2798)">
<path d="M71.28 8.30553C71.28 8.84553 71.1257 9.30839 70.74 9.61696C70.3543 10.0027 69.8914 10.157 69.3514 10.157C68.9657 10.157 68.6571 10.0798 68.4257 9.92553C68.1171 9.77124 67.8857 9.53981 67.7314 9.23124C67.5771 8.92267 67.5 8.6141 67.5 8.30553C67.5 7.76553 67.6543 7.30267 68.04 6.9941C68.4257 6.60839 68.8886 6.4541 69.3514 6.4541C69.8914 6.4541 70.3543 6.60839 70.6629 6.9941C71.0486 7.30267 71.28 7.76553 71.28 8.30553Z" fill="#E74243"/>
<path d="M84.7795 20.3401C84.7795 21.4973 84.3167 22.5001 83.4681 23.1944C82.6195 23.9658 81.3081 24.2744 79.611 24.2744C78.6852 24.2744 77.8367 24.1973 77.0652 24.043C76.2938 23.8887 75.5224 23.6573 74.6738 23.2716V20.0316C75.4452 20.4944 76.0624 20.803 76.6795 21.0344C77.2195 21.2658 77.8367 21.343 78.531 21.343C79.6881 21.343 80.2281 21.0344 80.2281 20.4173C80.2281 20.1858 80.1509 20.0316 79.9967 19.8773C79.8424 19.723 79.5338 19.4916 79.1481 19.3373C78.7624 19.1058 78.2224 18.8744 77.5281 18.5658C76.6795 18.1801 75.9852 17.7173 75.3681 17.1001C74.751 16.483 74.5195 15.7116 74.5195 14.7859C74.5195 14.1687 74.751 13.5516 75.1367 12.9344C75.5224 12.3173 76.1395 11.8544 76.911 11.4687C77.6824 11.083 78.6852 10.9287 79.7652 10.9287C79.9967 10.9287 80.3824 10.9287 80.7681 11.0059C81.1538 11.083 81.6938 11.1601 82.3109 11.3144C82.9281 11.4687 83.5452 11.7001 84.0852 12.0087V15.1716C83.8538 15.0173 83.6224 14.863 83.3909 14.7859C83.2367 14.7087 83.0052 14.5544 82.6967 14.4001C82.3881 14.2459 82.0024 14.1687 81.6167 14.0144C81.231 13.9373 80.7681 13.8601 80.3824 13.8601C79.8424 13.8601 79.5338 13.9373 79.3024 14.1687C79.071 14.4001 78.9938 14.5544 78.9938 14.7859C78.9938 15.0173 79.071 15.1716 79.3024 15.403C79.5338 15.6344 79.9195 15.7887 80.6138 16.0973C81.6167 16.483 82.3881 16.8687 83.0052 17.2544C83.6224 17.6401 84.0081 18.103 84.3167 18.5658C84.6252 19.1058 84.7795 19.6458 84.7795 20.3401Z" fill="#E74243"/>
<path d="M97.3547 23.2713C96.8918 23.5027 96.2747 23.7342 95.4261 23.8884C94.5775 24.1199 93.8061 24.197 93.0347 24.197C89.7947 24.197 88.1747 22.577 88.1747 19.4142V14.3227H86.0918V13.5513L92.1861 7.37988H92.7261V11.237H97.0461V14.3999H92.7261V18.4884C92.7261 18.9513 92.7261 19.337 92.8032 19.6456C92.8804 19.9542 93.0347 20.1856 93.2661 20.417C93.5747 20.6484 93.9604 20.7256 94.5004 20.7256C95.1947 20.7256 96.1975 20.417 97.3547 19.7999V23.2713Z" fill="#E74243"/>
<path d="M115.329 8.30553C115.329 8.84553 115.175 9.30839 114.789 9.61696C114.403 10.0027 113.94 10.157 113.4 10.157C113.015 10.157 112.706 10.0798 112.475 9.92553C112.166 9.77124 111.935 9.53981 111.78 9.23124C111.626 8.92267 111.549 8.6141 111.549 8.30553C111.549 7.76553 111.703 7.30267 112.089 6.9941C112.475 6.60839 112.937 6.4541 113.4 6.4541C113.94 6.4541 114.403 6.60839 114.712 6.9941C115.097 7.30267 115.329 7.76553 115.329 8.30553Z" fill="#E74243"/>
<path d="M161.693 23.2713C161.23 23.5027 160.613 23.7342 159.764 23.8884C158.915 24.1199 158.144 24.197 157.373 24.197C154.133 24.197 152.513 22.577 152.513 19.4142V14.3227H150.43V13.5513L156.524 7.37988H157.064V11.237H161.384V14.3999H157.064V18.4884C157.064 18.9513 157.064 19.337 157.141 19.6456C157.218 19.9542 157.373 20.1856 157.604 20.417C157.835 20.6484 158.298 20.7256 158.838 20.7256C159.533 20.7256 160.535 20.417 161.693 19.7999V23.2713Z" fill="#E74243"/>
<path d="M177.815 17.6392C177.815 18.9506 177.507 20.0306 176.967 21.0335C176.427 22.0363 175.578 22.8077 174.498 23.4249C173.418 24.042 172.03 24.2734 170.487 24.2734C168.944 24.2734 167.555 23.9649 166.475 23.4249C165.395 22.8849 164.547 22.0363 164.007 21.0335C163.467 20.0306 163.158 18.8735 163.158 17.6392C163.158 16.6363 163.312 15.7877 163.621 15.0163C163.93 14.2449 164.392 13.5506 165.01 12.9335C165.627 12.3163 166.398 11.8535 167.324 11.5449C168.25 11.2363 169.33 11.082 170.487 11.082C171.721 11.082 172.724 11.2363 173.727 11.5449C174.73 11.8535 175.424 12.3163 176.041 12.9335C176.658 13.5506 177.121 14.2449 177.43 15.0163C177.738 15.7877 177.815 16.6363 177.815 17.6392ZM173.11 17.6392C173.11 16.6363 172.878 15.8649 172.415 15.2477C171.952 14.6306 171.335 14.3992 170.487 14.3992C169.638 14.3992 169.021 14.7077 168.558 15.2477C168.095 15.7877 167.864 16.6363 167.864 17.6392C167.864 18.642 168.095 19.4135 168.558 20.0306C169.021 20.6477 169.638 20.8792 170.487 20.8792C171.335 20.8792 171.952 20.5706 172.415 20.0306C172.878 19.4135 173.11 18.642 173.11 17.6392Z" fill="#E74243"/>
<path d="M70.3543 24.042C70.5085 24.042 70.8943 24.042 71.28 23.6563C71.28 23.6563 71.6657 23.2706 71.6657 22.7306V11.2363H68.4257C68.3485 11.2363 67.8857 11.2363 67.5771 11.622C67.5771 11.622 67.1914 12.0078 67.1914 12.5478V24.042H70.3543Z" fill="#E74243"/>
<path d="M147.42 24.042C147.497 24.042 147.96 24.042 148.269 23.6563C148.269 23.6563 148.654 23.2706 148.654 22.7306V11.2363H145.414C145.337 11.2363 144.874 11.2363 144.566 11.622C144.566 11.622 144.18 12.0078 144.18 12.5478V18.7963C143.794 19.4135 143.409 19.8763 143.023 20.262C142.637 20.6478 142.097 20.802 141.48 20.802C140.709 20.802 140.169 20.5706 139.937 20.0306C139.706 19.4906 139.551 18.8735 139.551 18.1792V11.2363H135V18.7963C135 20.1849 135.309 21.4963 135.849 22.5763C136.389 23.6563 137.7 24.2735 139.629 24.2735C140.631 24.2735 141.48 24.1192 142.174 23.7335C142.869 23.4249 143.563 22.8849 144.18 22.1906V24.042H147.42Z" fill="#E74243"/>
<path d="M64.0293 22.7313V6.60846H60.7893C60.7121 6.60846 60.2493 6.60846 59.9407 6.99417C59.9407 6.99417 59.555 7.37989 59.555 7.91989V12.0085C59.1693 11.6999 58.7064 11.4685 58.1664 11.3142C57.6264 11.1599 56.9321 11.0056 56.1607 11.0056C54.7721 11.0056 53.6921 11.3142 52.7664 11.9313C51.8407 12.5485 51.1464 13.397 50.6835 14.3999C50.2207 15.4027 50.0664 16.4827 50.0664 17.6399C50.0664 19.1056 50.375 20.3399 50.915 21.3427C51.455 22.3456 52.2264 23.0399 53.1521 23.5027C54.0778 23.9656 54.9264 24.197 55.9293 24.197C56.855 24.197 57.6264 24.0427 58.1664 23.8113C58.7064 23.5799 59.1693 23.1942 59.7093 22.8084V24.0427H62.9493C63.0264 24.0427 63.4893 24.0427 63.7978 23.657C63.6435 23.657 64.0293 23.3484 64.0293 22.7313ZM59.4778 19.9542C59.1693 20.1856 58.8607 20.417 58.475 20.5713C58.1664 20.7256 57.7035 20.8027 57.1635 20.8027C56.4693 20.8027 55.9293 20.5713 55.3893 20.0313C54.8493 19.4913 54.6178 18.7199 54.6178 17.5627C54.6178 16.5599 54.8493 15.7113 55.3121 15.0942C55.775 14.477 56.3921 14.1685 57.0864 14.1685C57.4721 14.1685 57.8578 14.2456 58.1664 14.3227C58.475 14.477 58.8607 14.6313 59.4007 14.9399V19.9542H59.4778Z" fill="#E74243"/>
<path d="M190.081 11.2373C189.696 11.083 189.233 11.0059 188.77 11.0059C187.767 11.0059 186.918 11.3916 186.224 12.0859C185.53 12.7801 184.99 13.5516 184.681 14.323V11.2373H181.441C181.287 11.2373 180.901 11.3144 180.593 11.623C180.593 11.623 180.207 12.0087 180.207 12.5487V24.043H183.447C183.524 24.043 183.987 24.043 184.296 23.6573C184.296 23.6573 184.681 23.2716 184.681 22.7316V18.4887C185.144 17.3316 185.53 16.5601 185.993 16.0973C186.456 15.6344 186.996 15.4801 187.613 15.4801C188.307 15.4801 189.001 15.7887 189.696 16.483L191.393 11.9316C190.93 11.623 190.467 11.3916 190.081 11.2373Z" fill="#E74243"/>
<path d="M112.397 11.2363C112.243 11.2363 111.857 11.2363 111.472 11.622C111.472 11.622 111.086 12.0078 111.086 12.5478V24.042H114.326C114.403 24.042 114.866 24.042 115.175 23.6563C115.175 23.6563 115.56 23.2706 115.56 22.7306V11.2363H112.397Z" fill="#E74243"/>
<path d="M109.236 11.2373C108.85 11.083 108.387 11.0059 107.924 11.0059C106.921 11.0059 106.073 11.3916 105.378 12.0859C104.684 12.7801 104.144 13.5516 103.836 14.323V11.2373H100.596C100.518 11.2373 100.056 11.2373 99.747 11.623C99.747 11.623 99.3613 12.0087 99.3613 12.5487V24.043H102.601C102.678 24.043 103.141 24.043 103.45 23.6573C103.45 23.6573 103.836 23.2716 103.836 22.7316V18.4887C104.298 17.3316 104.684 16.5601 105.147 16.0973C105.61 15.6344 106.15 15.4801 106.767 15.4801C107.461 15.4801 108.156 15.7887 108.85 16.483L110.547 11.9316C110.007 11.623 109.621 11.3916 109.236 11.2373Z" fill="#E74243"/>
<path d="M132.532 15.2484C132.301 14.477 131.915 13.7055 131.452 13.0884C130.989 12.4713 130.295 11.9313 129.524 11.5455C128.752 11.1598 127.826 11.0055 126.824 11.0055C126.052 11.0055 125.358 11.0827 124.818 11.3141C124.201 11.5455 123.738 11.777 123.429 12.0084V6.6084H120.189C120.112 6.6084 119.649 6.6084 119.341 6.99411C119.341 6.99411 118.955 7.37983 118.955 7.91983V24.0427H122.195C122.272 24.0427 122.735 24.0427 123.044 23.657C123.044 23.657 123.429 23.2712 123.429 22.7312V22.8855C123.738 23.117 123.969 23.3484 124.278 23.5027C124.587 23.657 124.895 23.8884 125.435 24.0427C125.898 24.197 126.515 24.2741 127.209 24.2741C128.135 24.2741 129.061 24.0427 129.986 23.5798C130.912 23.117 131.606 22.4227 132.224 21.4198C132.841 20.417 133.072 19.1827 133.072 17.717C132.841 16.8684 132.764 16.0198 132.532 15.2484ZM127.286 20.1855C126.746 20.6484 126.207 20.8798 125.589 20.8798C124.664 20.8798 123.969 20.5712 123.275 19.9541V15.0941C124.124 14.5541 124.895 14.2455 125.589 14.2455C126.284 14.2455 126.824 14.5541 127.364 15.0941C127.827 15.6341 128.135 16.4827 128.135 17.6398C128.058 18.8741 127.826 19.7227 127.286 20.1855Z" fill="#E74243"/>
<path d="M0 14.1686L4.32 9.92578V12.3172H7.94571V14.4001H4.32V20.0315C4.32 21.3429 4.86 22.0372 5.94 22.0372C6.78857 22.0372 7.63714 21.7286 8.56285 21.1886V23.3486C7.71428 23.8115 6.71143 24.1201 5.70857 24.1201C4.62857 24.0429 3.78 23.7343 3.08571 23.1943C2.85428 23.0401 2.7 22.8086 2.54571 22.5772C2.39143 22.3458 2.31428 22.0372 2.16 21.6515C2.00571 21.2658 2.00571 20.5715 2.00571 19.4915V14.3229H0V14.1686Z" fill="#E74243"/>
<path d="M15.7378 12.2402C17.5121 12.2402 18.9778 12.7802 20.135 13.9374C21.2921 15.0945 21.9093 16.4831 21.9093 18.2574C21.9093 19.9545 21.2921 21.3431 20.135 22.4231C18.9778 23.5031 17.435 24.0431 15.6607 24.0431C13.8864 24.0431 12.4978 23.5031 11.3407 22.3459C10.1835 21.1888 9.56641 19.8002 9.56641 18.1802C9.56641 16.4831 10.1835 15.0945 11.3407 13.9374C12.4978 12.7802 13.9635 12.2402 15.7378 12.2402ZM15.5835 14.3231C14.5035 14.3231 13.5778 14.7088 12.8835 15.4031C12.1893 16.0974 11.8035 17.0231 11.8035 18.1802C11.8035 19.2602 12.1893 20.1859 12.8835 20.8802C13.5778 21.5745 14.5035 21.9602 15.6607 21.9602C16.8178 21.9602 17.7435 21.5745 18.4378 20.8802C19.1321 20.1859 19.5178 19.2602 19.5178 18.1802C19.5178 17.1002 19.1321 16.1745 18.3607 15.4802C17.6664 14.7088 16.7407 14.3231 15.5835 14.3231Z" fill="#E74243"/>
<path d="M24.4531 6.2998H26.7674V23.8884H24.4531V6.2998ZM31.936 12.3169H34.636L29.6988 17.9484L35.6388 23.8884H32.5531L26.7674 17.9484L31.936 12.3169Z" fill="#E74243"/>
<path d="M41.5035 12.2402C43.2777 12.2402 44.7434 12.7802 45.9006 13.9374C47.0577 15.0945 47.6749 16.4831 47.6749 18.2574C47.6749 19.9545 47.0577 21.3431 45.9006 22.4231C44.7434 23.5031 43.2006 24.0431 41.4263 24.0431C39.652 24.0431 38.2635 23.5031 37.1063 22.3459C35.9492 21.1888 35.332 19.8002 35.332 18.1802C35.332 16.4831 35.9492 15.0945 37.1063 13.9374C38.2635 12.7802 39.7292 12.2402 41.5035 12.2402ZM41.4263 14.3231C40.3463 14.3231 39.4206 14.7088 38.7263 15.4031C38.032 16.0974 37.6463 17.0231 37.6463 18.1802C37.6463 19.2602 38.032 20.1859 38.7263 20.8802C39.4206 21.5745 40.3463 21.9602 41.5035 21.9602C42.6606 21.9602 43.5863 21.5745 44.2806 20.8802C44.9749 20.1859 45.3606 19.2602 45.3606 18.1802C45.3606 17.1002 44.9749 16.1745 44.2034 15.4802C43.5092 14.7088 42.5063 14.3231 41.4263 14.3231Z" fill="#E74243"/>
</g>
<defs>
<clipPath id="clip0_1_2798">
<rect width="191.828" height="18" fill="white" transform="translate(0 6.2998)"/>
</clipPath>
</defs>
</svg>
