<svg width="40" height="39" viewBox="0 0 40 39" fill="none" xmlns="http://www.w3.org/2000/svg">
<path fill-rule="evenodd" clip-rule="evenodd" d="M20.2386 0.00787354C9.34307 0.00787354 0.510483 8.62594 0.510483 19.2569C0.510483 29.8878 9.34307 38.5058 20.2386 38.5058C31.1342 38.5058 39.9668 29.8878 39.9668 19.2569C39.9668 8.62594 31.1342 0.00787354 20.2386 0.00787354ZM28.4591 12.6404C29.3645 12.8828 30.0776 13.5971 30.3196 14.5042C30.7594 16.1482 30.7594 19.5785 30.7594 19.5785C30.7594 19.5785 30.7594 23.0087 30.3196 24.6529C30.0776 25.56 29.3645 26.2743 28.4591 26.5169C26.8182 26.9573 20.2377 26.9573 20.2377 26.9573C20.2377 26.9573 13.6572 26.9573 12.0162 26.5169C11.1108 26.2743 10.3977 25.56 10.1557 24.6529C9.71605 23.0087 9.71605 19.5785 9.71605 19.5785C9.71605 19.5785 9.71605 16.1482 10.1557 14.5042C10.3977 13.5971 11.1108 12.8828 12.0162 12.6404C13.6572 12.1998 20.2377 12.1998 20.2377 12.1998C20.2377 12.1998 26.8182 12.1998 28.4591 12.6404Z" fill="white"/>
<path fill-rule="evenodd" clip-rule="evenodd" d="M18.2644 23.1068V16.6905L23.5252 19.8988L18.2644 23.1068Z" fill="white"/>
</svg>
